<svg width="22.000000" height="26.000000" viewBox="0 0 22 26" fill="none" xmlns="http://www.w3.org/2000/svg" xmlns:xlink="http://www.w3.org/1999/xlink">
	<desc>
			Created with Pixso.
	</desc>
	<defs/>
	<g opacity="0.240000">
		<path id="Combined-Shape" d="M0 18.9091C0 20.8655 1.6438 22.4545 3.66919 22.4545L7.33325 22.4571C7.33325 24.4143 8.97485 26 11 26C13.0195 26 14.6646 24.413 14.6667 22.4545L18.3308 22.4545C20.3586 22.4545 22 20.8681 22 18.9091C22 17.619 21.2793 16.4664 20.1667 15.8454L20.1667 11.2318C20.1667 7.14194 17.3323 3.70343 13.4443 2.6765L13.4443 2.36363C13.4443 1.05824 12.3501 0 11 0C9.6499 0 8.55566 1.05824 8.55566 2.36363L8.55566 2.6765C4.66846 3.70366 1.83325 7.14185 1.83325 11.2256C1.83325 11.2256 1.83838 15.4764 1.83838 15.835C0.727051 16.4532 0 17.6105 0 18.9091ZM17.7222 11.2318L17.7222 16.9427C17.7222 17.2702 17.9922 17.6032 18.3181 17.6847L18.6384 17.7648C19.1733 17.8984 19.5557 18.3689 19.5557 18.9091C19.5557 19.5624 19.0088 20.0909 18.3308 20.0909L3.66919 20.0909C2.99365 20.0909 2.44434 19.56 2.44434 18.9091C2.44434 18.3666 2.8252 17.8979 3.36035 17.7647L3.69141 17.6823C4.01538 17.6017 4.27783 17.2732 4.27783 16.9426L4.27783 11.2256C4.27783 7.63638 7.28687 4.72728 11 4.72728C14.7148 4.72728 17.7222 7.63541 17.7222 11.2318ZM9.77783 22.4545C9.77783 23.1083 10.3245 23.6364 11 23.6364C11.6709 23.6364 12.2202 23.1064 12.2222 22.4545L9.77783 22.4545Z" clip-rule="evenodd" fill="#000000" fill-opacity="1.000000" fill-rule="evenodd"/>
	</g>
</svg>
