<svg width="27.000000" height="20.000000" viewBox="0 0 27 20" fill="none" xmlns="http://www.w3.org/2000/svg" xmlns:xlink="http://www.w3.org/1999/xlink">
	<desc>
			Created with Pixso.
	</desc>
	<defs/>
	<g opacity="0.240000">
		<path id="Combined-Shape" d="M18.4092 5.68182L22.2083 2.86766C22.4824 2.66461 22.9731 2.5 23.3201 2.5L25.769 2.5C26.449 2.5 27 3.06064 27 3.7531L27 16.2469C27 16.939 26.4561 17.5 25.769 17.5L23.3201 17.5C22.98 17.5 22.48 17.3336 22.2083 17.1323L18.4092 14.3182L18.4092 17.4973C18.4092 18.8795 17.3127 20 15.9551 20L2.4541 20C1.09863 20 0 18.8819 0 17.4973L0 2.50266C0 1.12048 1.09644 0 2.4541 0L15.9551 0C17.3103 0 18.4092 1.11815 18.4092 2.50266L18.4092 5.68182ZM2.45459 17.5L2.45459 2.5L15.9546 2.5L15.9546 17.5L2.45459 17.5ZM23.5107 14.9998L18.4241 11.238L18.4243 8.7618L23.5073 4.9966L24.5454 4.99817L24.5454 14.9988L23.5107 14.9998ZM4.90918 13.75C4.90918 13.0596 5.45947 12.5 6.13989 12.5L12.269 12.5C12.949 12.5 13.5 13.0548 13.5 13.75C13.5 14.4404 12.9495 15 12.269 15L6.13989 15C5.46021 15 4.90918 14.4452 4.90918 13.75Z" clip-rule="evenodd" fill="#000000" fill-opacity="1.000000" fill-rule="evenodd"/>
	</g>
</svg>
