<svg width="21.000000" height="21.000000" viewBox="0 0 21 21" fill="none" xmlns="http://www.w3.org/2000/svg" xmlns:xlink="http://www.w3.org/1999/xlink">
	<desc>
			Created with Pixso.
	</desc>
	<defs/>
	<g opacity="0.240000">
		<path id="Combined Shape" d="M2.5 5C1.11938 5 0 3.88071 0 2.5C0 1.11929 1.11938 0 2.5 0C3.88062 0 5 1.11929 5 2.5C5 3.88071 3.88062 5 2.5 5ZM10.5 5C9.11938 5 8 3.88071 8 2.5C8 1.11929 9.11938 0 10.5 0C11.8806 0 13 1.11929 13 2.5C13 3.88071 11.8806 5 10.5 5ZM18.5 5C17.1194 5 16 3.88071 16 2.5C16 1.11929 17.1194 0 18.5 0C19.8806 0 21 1.11929 21 2.5C21 3.88071 19.8806 5 18.5 5ZM2.5 13C1.11938 13 0 11.8807 0 10.5C0 9.11929 1.11938 8 2.5 8C3.88062 8 5 9.11929 5 10.5C5 11.8807 3.88062 13 2.5 13ZM10.5 13C9.11938 13 8 11.8807 8 10.5C8 9.11929 9.11938 8 10.5 8C11.8806 8 13 9.11929 13 10.5C13 11.8807 11.8806 13 10.5 13ZM18.5 13C17.1194 13 16 11.8807 16 10.5C16 9.11929 17.1194 8 18.5 8C19.8806 8 21 9.11929 21 10.5C21 11.8807 19.8806 13 18.5 13ZM2.5 21C1.11938 21 0 19.8807 0 18.5C0 17.1193 1.11938 16 2.5 16C3.88062 16 5 17.1193 5 18.5C5 19.8807 3.88062 21 2.5 21ZM10.5 21C9.11938 21 8 19.8807 8 18.5C8 17.1193 9.11938 16 10.5 16C11.8806 16 13 17.1193 13 18.5C13 19.8807 11.8806 21 10.5 21ZM18.5 21C17.1194 21 16 19.8807 16 18.5C16 17.1193 17.1194 16 18.5 16C19.8806 16 21 17.1193 21 18.5C21 19.8807 19.8806 21 18.5 21Z" clip-rule="evenodd" fill="#000000" fill-opacity="1.000000" fill-rule="evenodd"/>
	</g>
</svg>
