<svg width="19.000000" height="19.000000" viewBox="0 0 19 19" fill="none" xmlns="http://www.w3.org/2000/svg" xmlns:xlink="http://www.w3.org/1999/xlink">
	<desc>
			Created with Pixso.
	</desc>
	<defs/>
	<path id="Shape" d="M17.9006 16.4865L14.3206 12.9065L14.3196 12.9055C16.9094 9.569 16.4595 4.79387 13.2915 2.00008C10.1238 -0.793732 5.32983 -0.643494 2.34326 2.34317C-0.643555 5.32983 -0.793701 10.1238 2 13.2916C4.79395 16.4594 9.56909 16.9095 12.9055 14.3195L16.4856 17.8995C16.7363 18.1597 17.1082 18.2642 17.4578 18.1729C17.8076 18.0816 18.0808 17.8088 18.1726 17.4592C18.2642 17.1096 18.1604 16.7378 17.9006 16.4865ZM8.00049 14.0005C10.144 14.0005 12.1248 12.8569 13.1968 11.0005C14.2686 9.14412 14.2686 6.85693 13.1968 5.00052C12.1248 3.14412 10.144 2.00052 8.00049 2.00052C4.68677 2.00052 2.00049 4.68681 2.00049 8.00052C2.00049 11.3142 4.68677 14.0005 8.00049 14.0005Z" clip-rule="evenodd" fill="#000000" fill-opacity="1.000000" fill-rule="evenodd"/>
</svg>
