<svg width="123" height="33" viewBox="0 0 123 33" fill="none" xmlns="http://www.w3.org/2000/svg">
<g filter="url(#filter0_d_0_902)">
<path fill-rule="evenodd" clip-rule="evenodd" d="M15.6734 24.8231L23.1906 24.9587C23.2026 24.9587 23.2265 24.9587 23.2265 24.9764C27.4126 25.0531 31.4912 24.8113 35.6654 24.5106C38.9964 24.2807 39.7858 21.8986 40.1984 19.0566C40.7127 15.625 40.8263 12.1521 40.5572 8.69693C40.5444 8.53379 40.5319 8.36919 40.5194 8.20355C40.2692 4.89713 39.9879 1.1803 36.0242 0.49528C35.181 0.347874 34.3198 0.218157 33.4646 0.194572C25.3674 -0.0648618 17.1984 -0.12972 9.08321 0.424525C6.67915 0.577827 5.12429 1.98113 4.72959 4.33372C4.0299 8.52594 3.88638 12.8302 4.25715 17.0578C4.26178 17.1095 4.2664 17.1614 4.27104 17.2134C4.5361 20.1873 4.84583 23.6623 8.41342 24.3809C10.3341 24.7748 12.2896 24.7905 14.2489 24.8063C14.7237 24.8101 15.1987 24.8139 15.6734 24.8231ZM22.7294 15.5231C21.4155 16.2676 20.0987 17.0139 18.7712 17.7653V7.16391C20.2009 7.9725 21.6206 8.77738 23.0418 9.58308C24.7295 10.5399 26.4193 11.4979 28.1303 12.4646C26.3225 13.487 24.5288 14.5035 22.7294 15.5231Z" fill="#FF0000"/>
<path fill-rule="evenodd" clip-rule="evenodd" d="M100.783 22.7476L100.783 22.7482C100.739 22.9138 100.696 23.0766 100.653 23.2429H97.7103V0.866745H101.143V9.12146C101.242 8.99822 101.313 8.91422 101.371 8.8469L101.371 8.8468C101.417 8.79178 101.455 8.7479 101.49 8.70283C102.076 7.90684 102.835 7.38797 103.816 7.1875C105.377 6.88679 106.711 7.56486 107.183 9.04481C107.488 9.96462 107.685 10.9493 107.709 11.9104C107.757 14.3809 107.721 16.8455 107.632 19.316C107.596 20.0708 107.362 20.8432 107.069 21.5507C106.107 23.8856 102.961 24.2394 101.4 22.217C101.346 22.147 101.294 22.0732 101.228 21.9808L101.228 21.9807C101.178 21.9097 101.12 21.8275 101.047 21.7276C100.953 22.1064 100.867 22.432 100.783 22.7476ZM101.215 15.5719V19.6639C101.215 20.3302 101.574 20.737 102.249 20.8903C102.913 21.0436 103.451 20.7901 103.72 20.1828C103.834 19.9292 103.948 19.6639 103.954 19.3986C104.019 16.8986 104.079 14.3986 104.097 11.8927C104.097 11.4269 103.984 10.9434 103.84 10.4894C103.571 9.66981 102.829 9.42807 102.1 9.90566C101.55 10.2712 101.215 10.7901 101.215 11.48V15.5719ZM95.4797 7.5059H91.8856C91.8856 7.75943 91.8856 7.9717 91.9155 8.20165V19.5401C91.9155 20.3538 91.3414 20.9611 90.5101 21.0259C89.9958 21.0613 89.6131 20.8726 89.5114 20.3538C89.4217 19.8467 89.3679 19.3219 89.3679 18.8149C89.3499 16.144 89.3522 13.4764 89.3544 10.8072C89.3552 9.91731 89.3559 9.02724 89.3559 8.13679V7.4941H85.7199V8.04835C85.7199 9.27368 85.7186 10.5003 85.7173 11.7274V11.7287V11.73V11.7313V11.7326V11.7339V11.7352C85.7146 14.1959 85.712 16.6584 85.7199 19.1156C85.7199 19.6108 85.7439 20.112 85.7977 20.6073C85.9771 22.27 86.7784 23.2842 88.112 23.4965C89.6729 23.7382 90.9945 23.2842 91.9274 21.9575C91.9691 21.896 92.01 21.8344 92.0537 21.7685L92.0541 21.768L92.0544 21.7675L92.0544 21.7675C92.1361 21.6445 92.2276 21.5068 92.352 21.3267L92.3849 21.5247L92.385 21.5249C92.4906 22.16 92.5828 22.7147 92.6749 23.2547H95.4797V7.5059ZM67.1393 7.4941H70.7514V8.16038C70.7514 9.04662 70.7506 9.93249 70.7499 10.818C70.7477 13.4732 70.7454 16.125 70.7634 18.7736C70.7634 19.2807 70.8112 19.8054 70.9188 20.3007C71.0564 20.8844 71.4032 21.0731 71.9953 20.9965C72.8146 20.8844 73.3109 20.3243 73.3169 19.5047V8.22524V7.51769H76.911V23.2547H74.1183C74.0638 22.9422 74.0094 22.6246 73.9504 22.2801L73.95 22.2781C73.8989 21.9798 73.8444 21.6615 73.7834 21.309C73.604 21.5743 73.5023 21.7276 73.4006 21.8868C72.4677 23.237 71.158 23.7323 69.5613 23.4906C68.2816 23.3019 67.4981 22.3703 67.2589 20.8432C67.1932 20.3656 67.1453 19.8939 67.1453 19.4163C67.1333 15.5896 67.1333 11.7453 67.1333 7.91863L67.1393 7.4941ZM65.2261 17.1757C65.251 16.7512 65.2759 16.3267 65.2855 15.9021C65.3213 14.4634 65.2376 13.0248 65.0642 11.6038C64.7472 9.12736 63.5452 7.38797 60.8541 7.19929C57.9716 7.00472 56.1177 8.05424 55.5795 11.02C55.0592 13.8856 55.0951 16.7983 55.5317 19.6639C55.9144 22.1462 56.9789 23.1427 59.2693 23.4847C59.7537 23.5495 60.2441 23.5495 60.7285 23.5377C61.8169 23.5024 62.8694 23.237 63.7007 22.5059C64.8922 21.4443 65.0497 19.4668 65.173 17.9189C65.1846 17.7731 65.1959 17.6311 65.2077 17.4941C65.2137 17.388 65.2199 17.2819 65.2261 17.1757ZM61.6255 15.3597C61.6255 15.0718 61.6275 14.7835 61.6294 14.4949C61.6343 13.7728 61.6392 13.0494 61.6136 12.329C61.5897 11.7453 61.5119 11.1557 61.3863 10.5778C61.2428 9.91156 60.8122 9.59316 60.274 9.60495C59.7478 9.61674 59.377 9.93514 59.1856 10.5542L59.1742 10.5941C59.1118 10.8114 59.0481 11.0333 59.0481 11.25C59.0481 12.8302 59.0361 14.4163 59.0241 15.9965C59.0216 16.3085 59.011 16.6237 59.0004 16.9401C58.9609 18.1185 58.9208 19.3136 59.2933 20.4245C59.4368 20.855 59.8076 21.0908 60.292 21.0908C60.7644 21.0908 61.0754 20.8608 61.2488 20.4481C61.3863 20.1297 61.5059 19.7818 61.5059 19.4399C61.5191 19.0136 61.5358 18.5869 61.5525 18.1597L61.5525 18.1595L61.5525 18.1594L61.5525 18.1592C61.589 17.2273 61.6255 16.2935 61.6255 15.3597ZM50.5118 11.1592L50.5118 11.1594C50.4276 11.5689 50.343 11.9801 50.2571 12.3939C49.4677 8.77948 48.7082 5.20047 47.9547 1.62146H44.3726C44.3936 1.70451 44.4089 1.783 44.4235 1.85791C44.442 1.9532 44.4594 2.04271 44.4862 2.12854C44.9407 3.75 45.3982 5.37442 45.8557 6.99883C46.3131 8.62324 46.7706 10.2476 47.2251 11.8691C47.3125 12.1808 47.4025 12.492 47.4925 12.8033C48.1108 14.9413 48.7294 17.0802 48.5049 19.3809C48.4357 20.1274 48.4552 20.8821 48.4747 21.6376C48.4838 21.992 48.4929 22.3465 48.4929 22.7005C48.4929 22.8184 48.5036 22.9363 48.5142 23.0542C48.5195 23.1132 48.5248 23.1722 48.5288 23.2311H52.0392V22.5943C52.0392 21.9416 52.0379 21.2896 52.0366 20.6378V20.6377V20.6377C52.0339 19.3346 52.0313 18.0324 52.0392 16.7276C52.0392 16.4328 52.0751 16.1321 52.1528 15.855C53.1635 12.27 54.1861 8.68514 55.2088 5.11203L55.2882 4.83203L55.2882 4.83195L55.2883 4.83193C55.5856 3.78428 55.888 2.71887 56.1955 1.60377C55.8983 1.60377 55.6052 1.60574 55.3153 1.60769C54.6017 1.61248 53.908 1.61714 53.2233 1.59198C52.7748 1.58019 52.5834 1.69222 52.4818 2.15802C52.264 3.18114 52.0307 4.20257 51.7977 5.22322L51.7977 5.22324C51.5956 6.10834 51.3936 6.99285 51.202 7.87736C50.9622 8.96909 50.7383 10.0577 50.5118 11.1591L50.5118 11.1592ZM118.94 16.5035H112.888C112.906 16.835 112.921 17.1619 112.936 17.4852L112.936 17.4857C112.975 18.3301 113.013 19.1504 113.103 19.9646C113.193 20.7488 113.63 21.0849 114.317 21.0908C115.035 21.1026 115.454 20.7488 115.621 19.9705C115.675 19.717 115.711 19.4634 115.735 19.204C115.756 18.9986 115.768 18.7791 115.783 18.4992L115.783 18.4989L115.789 18.3962C116.092 18.412 116.393 18.4282 116.693 18.4444L116.693 18.4444C117.403 18.4827 118.103 18.5205 118.797 18.5495C119.371 20.23 118.336 22.388 116.596 23.0542C115.226 23.5849 113.821 23.5849 112.422 23.1781C111.387 22.8774 110.616 22.2288 110.269 21.2323C109.946 20.3007 109.641 19.3278 109.575 18.355C109.396 15.9552 109.33 13.5318 109.701 11.1262C109.766 10.7252 109.88 10.342 110.006 9.95283C110.508 8.34906 111.602 7.36439 113.295 7.19929C114.216 7.11085 115.167 7.14623 116.076 7.29953C117.547 7.55307 118.33 8.5967 118.671 9.96462C118.827 10.6073 118.94 11.2677 118.964 11.9222C118.967 12.733 118.96 13.5404 118.953 14.361C118.947 15.0621 118.94 15.7728 118.94 16.5035ZM115.503 13.5475C115.502 13.8393 115.502 14.1344 115.502 14.434C114.694 14.434 113.863 14.434 112.948 14.4458C112.946 14.1899 112.94 13.9343 112.934 13.679C112.907 12.5398 112.88 11.4075 113.193 10.2948C113.319 9.8408 113.642 9.58726 114.15 9.58726C114.658 9.58726 115.083 9.72288 115.286 10.2182C115.388 10.4717 115.49 10.7488 115.49 11.0142C115.507 11.8512 115.505 12.6851 115.503 13.5475Z" fill="#282828"/>
<path d="M79.6862 4.49292H76.1279V1.65094H86.7488V4.47523H83.2145V23.2311H79.6922L79.6862 4.49292Z" fill="#282828"/>
</g>
<defs>
<filter id="filter0_d_0_902" x="0.0585938" y="0.0012207" width="122.906" height="32.9895" filterUnits="userSpaceOnUse" color-interpolation-filters="sRGB">
<feFlood flood-opacity="0" result="BackgroundImageFix"/>
<feColorMatrix in="SourceAlpha" type="matrix" values="0 0 0 0 0 0 0 0 0 0 0 0 0 0 0 0 0 0 127 0" result="hardAlpha"/>
<feOffset dy="4"/>
<feGaussianBlur stdDeviation="2"/>
<feComposite in2="hardAlpha" operator="out"/>
<feColorMatrix type="matrix" values="0 0 0 0 0 0 0 0 0 0 0 0 0 0 0 0 0 0 0.25 0"/>
<feBlend mode="normal" in2="BackgroundImageFix" result="effect1_dropShadow_0_902"/>
<feBlend mode="normal" in="SourceGraphic" in2="effect1_dropShadow_0_902" result="shape"/>
</filter>
</defs>
</svg>
